<?xml version="1.0" encoding="utf-8"?>
<!-- Generator: Adobe Illustrator 24.2.0, SVG Export Plug-In . SVG Version: 6.00 Build 0)  -->
<svg version="1.1" id="Layer_1" xmlns="http://www.w3.org/2000/svg" xmlns:xlink="http://www.w3.org/1999/xlink" x="0px" y="0px"
	 viewBox="0 0 1920 1162.44" style="enable-background:new 0 0 1920 1162.44;" xml:space="preserve">
<style type="text/css">
	.st0{fill:none;}
	.st1{display:none;fill:none;}
	.st2{fill:#232323;}
	.st3{fill:#EA0A0A;}
</style>
<rect class="st0" width="1920" height="1162.44"/>
<rect class="st1" width="1920" height="1162.44"/>
<g>
	<path class="st2" d="M760.78,536.53c9.1,0,15.78,2.3,20.02,6.9c4.24,4.6,6.37,11.58,6.37,20.95v38.32
		c0,18.65-9.41,27.98-28.25,27.98h-37.39v-94.15H760.78z M738.64,612.65h21.88c6.01,0,9.02-2.92,9.02-8.75v-41.37
		c0-5.3-2.92-7.96-8.75-7.96h-22.15V612.65z"/>
	<path class="st2" d="M835.57,561.86c8.49,0,14.54,2.23,18.17,6.7c3.62,4.47,5.44,10.85,5.44,19.16v42.96h-35.54
		c-6.72,0-12.02-1.86-15.91-5.57c-3.89-3.71-5.83-9.28-5.83-16.71c0-5.3,1.9-9.66,5.7-13.06c3.8-3.4,9.28-5.55,16.44-6.43
		l18.43-2.25c-0.09-2.03-0.64-3.82-1.66-5.37c-1.02-1.55-2.54-2.32-4.58-2.32h-25.46v-17.11H835.57z M842.2,614.24v-13.92
		l-18.14,2.25c-1.42,0.18-2.58,0.82-3.47,1.92c-0.89,1.11-1.33,2.54-1.33,4.31c0,1.68,0.38,3.01,1.13,3.98
		c0.75,0.97,1.76,1.46,3,1.46H842.2z"/>
	<path class="st2" d="M908.77,561.86c16.27,0,24.4,8.62,24.4,25.86v42.96h-17.11v-44.42c0-4.24-1.99-6.36-5.97-6.36h-17.64v50.79
		h-16.97v-68.82H908.77z"/>
	<path class="st2" d="M965.92,531.76v19.1h-17.37v-19.1H965.92z M965.92,561.86v68.82h-17.37v-68.82H965.92z"/>
	<path class="st2" d="M1012.99,561.86c8.49,0,14.54,2.23,18.17,6.7c3.62,4.47,5.44,10.85,5.44,19.16v42.96h-35.54
		c-6.72,0-12.02-1.86-15.91-5.57c-3.89-3.71-5.83-9.28-5.83-16.71c0-5.3,1.9-9.66,5.7-13.06c3.8-3.4,9.28-5.55,16.44-6.43
		l18.43-2.25c-0.09-2.03-0.64-3.82-1.66-5.37c-1.02-1.55-2.54-2.32-4.57-2.32H988.2v-17.11H1012.99z M1019.63,614.24v-13.92
		l-18.14,2.25c-1.42,0.18-2.58,0.82-3.47,1.92c-0.89,1.11-1.33,2.54-1.33,4.31c0,1.68,0.38,3.01,1.13,3.98
		c0.75,0.97,1.75,1.46,3,1.46H1019.63z"/>
	<path class="st2" d="M1070.01,531.76v98.92h-17.11v-98.92H1070.01z"/>
	<path class="st2" d="M1185.12,536.53v17.77h-38.32c-5.39,0-8.09,2.52-8.09,7.56v14.06h43.36v18.03h-43.36v36.73h-17.37v-67.36
		c0-9.37,2.17-16.18,6.51-20.42c4.34-4.24,11.19-6.37,20.54-6.37H1185.12z"/>
	<path class="st2" d="M1225.96,561.86c8.49,0,14.54,2.23,18.17,6.7c3.62,4.47,5.44,10.85,5.44,19.16v42.96h-35.54
		c-6.72,0-12.02-1.86-15.91-5.57c-3.89-3.71-5.83-9.28-5.83-16.71c0-5.3,1.9-9.66,5.7-13.06c3.8-3.4,9.28-5.55,16.44-6.43
		l18.43-2.25c-0.09-2.03-0.64-3.82-1.66-5.37c-1.02-1.55-2.54-2.32-4.58-2.32h-25.46v-17.11H1225.96z M1232.59,614.24v-13.92
		l-18.14,2.25c-1.42,0.18-2.58,0.82-3.47,1.92c-0.89,1.11-1.33,2.54-1.33,4.31c0,1.68,0.38,3.01,1.13,3.98
		c0.75,0.97,1.75,1.46,3,1.46H1232.59z"/>
	<path class="st2" d="M1282.45,531.76v19.1h-17.37v-19.1H1282.45z M1282.45,561.86v68.82h-17.37v-68.82H1282.45z"/>
	<path class="st2" d="M1350.47,561.99v14.02l-25.99,36.64h26.12v18.03h-52.11v-12.33l27.58-38.32h-27.05v-18.03H1350.47z"/>
	<path class="st2" d="M1418.5,561.73v18.03h-30.1c-3.54,0-5.3,1.61-5.3,4.83c0,2.7,1.94,4.05,5.81,4.05h14.01
		c12.42,0,18.63,6.61,18.63,19.82c0,14.81-7.65,22.22-22.94,22.22h-30.76v-18.03h30.5c3.89,0,5.83-1.77,5.83-5.3
		c0-3.27-1.95-4.91-5.83-4.91h-10.74c-14.59,0-21.88-6.96-21.88-20.89c0-13.21,7.43-19.82,22.28-19.82H1418.5z"/>
	<path class="st2" d="M1467.43,561.86c8.49,0,14.54,2.23,18.17,6.7c3.62,4.47,5.44,10.85,5.44,19.16v42.96h-35.54
		c-6.72,0-12.02-1.86-15.91-5.57c-3.89-3.71-5.83-9.28-5.83-16.71c0-5.3,1.9-9.66,5.7-13.06c3.8-3.4,9.28-5.55,16.44-6.43
		l18.43-2.25c-0.09-2.03-0.64-3.82-1.66-5.37c-1.02-1.55-2.54-2.32-4.58-2.32h-25.46v-17.11H1467.43z M1474.06,614.24v-13.92
		l-18.14,2.25c-1.42,0.18-2.58,0.82-3.47,1.92c-0.89,1.11-1.33,2.54-1.33,4.31c0,1.68,0.38,3.01,1.13,3.98
		c0.75,0.97,1.75,1.46,3,1.46H1474.06z"/>
	<path class="st2" d="M1524.45,531.76v98.92h-17.11v-98.92H1524.45z"/>
</g>
<g>
	<path class="st3" d="M665.6,581.22c0,30.79-12.48,58.67-32.66,78.84c-20.18,20.18-48.05,32.66-78.84,32.66H424.52l2.64-6.9
		l7.43-19.39H554.1c23.53,0,44.83-9.54,60.25-24.96c8.77-8.77,15.65-19.45,19.93-31.36c2.84-7.88,4.56-16.29,4.94-25.05
		c0.06-1.27,0.09-2.55,0.09-3.84c0-3.8-0.25-7.54-0.73-11.21c-1.16-8.86-3.69-17.27-7.35-25.05
		c-13.62-28.93-43.04-48.95-77.13-48.95H416.03l-20.48-26.29H554.1C615.67,469.72,665.6,519.64,665.6,581.22z"/>
	<path class="st3" d="M553.97,616.77h-72.35l2.55-6.66l9.59-25.05l5.76-15.05l2.46-6.42l-13.95-17.92h65.94
		c9.81,0,18.7,3.98,25.14,10.41c0.6,0.6,1.18,1.23,1.74,1.87c5.4,6.24,8.67,14.37,8.67,23.27
		C589.52,600.85,573.6,616.77,553.97,616.77z M583.95,527.11c-0.61-0.34-1.23-0.67-1.86-0.99c-0.38-0.19-0.75-0.38-1.12-0.56
		c-0.38-0.18-0.76-0.36-1.13-0.53c-0.35-0.17-0.71-0.32-1.06-0.48c-0.51-0.22-1.03-0.44-1.55-0.65c-0.67-0.28-1.34-0.53-2.02-0.78
		c-1.59-0.58-3.21-1.1-4.85-1.55c-0.94-0.25-1.88-0.49-2.84-0.7c-0.94-0.21-1.9-0.4-2.87-0.57c0,0-0.01-0.01-0.02,0
		c-0.38-0.07-0.76-0.13-1.15-0.19c-0.34-0.06-0.69-0.11-1.04-0.15c-0.28-0.04-0.56-0.08-0.85-0.11c-0.47-0.06-0.94-0.11-1.42-0.16
		c-0.47-0.05-0.95-0.09-1.43-0.13c-0.52-0.04-1.05-0.07-1.58-0.1c-0.52-0.03-1.05-0.05-1.58-0.06c-0.49-0.01-0.99-0.02-1.48-0.02
		H434.23l6.12,7.86l31.87,40.92l-0.71,1.85l-5.77,15.05l-9.59,25.05l-2.55,6.66l-8.39,21.91l-1.68,4.38h110.84
		c0.52,0,1.04-0.01,1.55-0.03c0.34-0.01,0.68-0.02,1.02-0.04c0.15-0.01,0.29-0.01,0.43-0.02c0.99-0.05,1.96-0.13,2.93-0.23
		c0.64-0.06,1.27-0.14,1.9-0.23c0.31-0.04,0.62-0.08,0.93-0.13c0.05,0,0.09-0.01,0.14-0.02c0.46-0.07,0.92-0.14,1.37-0.22
		c0.05-0.01,0.11-0.02,0.17-0.03c0.24-0.04,0.47-0.08,0.71-0.13c0.36-0.06,0.72-0.13,1.07-0.21c0.38-0.08,0.76-0.16,1.13-0.25
		c1.13-0.25,2.25-0.54,3.35-0.85c1.11-0.32,2.2-0.67,3.28-1.04c1.08-0.38,2.14-0.78,3.19-1.22c0.27-0.11,0.54-0.23,0.82-0.35
		c0.51-0.21,1.02-0.44,1.52-0.67c0.25-0.11,0.49-0.23,0.74-0.34c0.11-0.06,0.22-0.11,0.33-0.16c0.02-0.02,0.04-0.03,0.06-0.04
		c0.33-0.16,0.67-0.33,1-0.49c0.35-0.18,0.71-0.36,1.05-0.55c1.05-0.56,2.07-1.15,3.08-1.76c0.34-0.2,0.67-0.41,1-0.62
		c0.33-0.21,0.66-0.43,0.99-0.64c0.65-0.44,1.3-0.89,1.94-1.34c0.41-0.3,0.82-0.6,1.22-0.91c0.32-0.25,0.65-0.5,0.97-0.76
		c0.3-0.23,0.59-0.46,0.88-0.7c0.29-0.23,0.57-0.47,0.86-0.72c0.16-0.13,0.32-0.26,0.47-0.4c0.14-0.12,0.28-0.24,0.42-0.37
		c0.26-0.22,0.51-0.45,0.76-0.68c0.42-0.38,0.83-0.77,1.24-1.16c0.39-0.38,0.78-0.77,1.17-1.16c10.98-11.16,17.76-26.47,17.76-43.37
		C615.82,557.94,602.95,537.66,583.95,527.11z"/>
</g>
</svg>
